<mxfile host="Electron" modified="2024-04-01T14:35:44.529Z" agent="Mozilla/5.0 (Windows NT 10.0; Win64; x64) AppleWebKit/537.36 (KHTML, like Gecko) draw.io/24.0.4 Chrome/120.0.6099.109 Electron/28.1.0 Safari/537.36" etag="hI4Qy4uute4bEfFwzN6h" version="24.0.4" type="device">
  <diagram id="C5RBs43oDa-KdzZeNtuy" name="Page-1">
    <mxGraphModel dx="1674" dy="836" grid="1" gridSize="10" guides="1" tooltips="1" connect="1" arrows="1" fold="1" page="1" pageScale="1" pageWidth="827" pageHeight="1169" math="0" shadow="0">
      <root>
        <mxCell id="WIyWlLk6GJQsqaUBKTNV-0" />
        <mxCell id="WIyWlLk6GJQsqaUBKTNV-1" parent="WIyWlLk6GJQsqaUBKTNV-0" />
        <mxCell id="cg7tUdVnF-VotXxQSskF-0" value="Presentation" style="swimlane;whiteSpace=wrap;html=1;startSize=23;" parent="WIyWlLk6GJQsqaUBKTNV-1" vertex="1">
          <mxGeometry x="380" y="30" width="840" height="310" as="geometry" />
        </mxCell>
        <mxCell id="cg7tUdVnF-VotXxQSskF-4" value="UI" style="swimlane;whiteSpace=wrap;html=1;" parent="cg7tUdVnF-VotXxQSskF-0" vertex="1">
          <mxGeometry x="80" y="40" width="220" height="200" as="geometry" />
        </mxCell>
        <mxCell id="cg7tUdVnF-VotXxQSskF-5" value="Controller" style="swimlane;whiteSpace=wrap;html=1;" parent="cg7tUdVnF-VotXxQSskF-0" vertex="1">
          <mxGeometry x="520" y="40" width="230" height="200" as="geometry" />
        </mxCell>
        <mxCell id="cg7tUdVnF-VotXxQSskF-2" value="Business" style="swimlane;whiteSpace=wrap;html=1;" parent="WIyWlLk6GJQsqaUBKTNV-1" vertex="1">
          <mxGeometry x="40" y="420" width="1270" height="570" as="geometry" />
        </mxCell>
        <mxCell id="cg7tUdVnF-VotXxQSskF-13" value="Tema" style="swimlane;fontStyle=0;childLayout=stackLayout;horizontal=1;startSize=20;horizontalStack=0;resizeParent=1;resizeParentMax=0;resizeLast=0;collapsible=1;marginBottom=0;whiteSpace=wrap;html=1;" parent="cg7tUdVnF-VotXxQSskF-2" vertex="1">
          <mxGeometry x="690" y="190" width="140" height="110" as="geometry" />
        </mxCell>
        <mxCell id="cg7tUdVnF-VotXxQSskF-14" value="Item 1" style="text;strokeColor=none;fillColor=none;align=left;verticalAlign=middle;spacingLeft=4;spacingRight=4;overflow=hidden;points=[[0,0.5],[1,0.5]];portConstraint=eastwest;rotatable=0;whiteSpace=wrap;html=1;" parent="cg7tUdVnF-VotXxQSskF-13" vertex="1">
          <mxGeometry y="20" width="140" height="30" as="geometry" />
        </mxCell>
        <mxCell id="cg7tUdVnF-VotXxQSskF-15" value="Item 2" style="text;strokeColor=none;fillColor=none;align=left;verticalAlign=middle;spacingLeft=4;spacingRight=4;overflow=hidden;points=[[0,0.5],[1,0.5]];portConstraint=eastwest;rotatable=0;whiteSpace=wrap;html=1;" parent="cg7tUdVnF-VotXxQSskF-13" vertex="1">
          <mxGeometry y="50" width="140" height="30" as="geometry" />
        </mxCell>
        <mxCell id="cg7tUdVnF-VotXxQSskF-16" value="Item 3" style="text;strokeColor=none;fillColor=none;align=left;verticalAlign=middle;spacingLeft=4;spacingRight=4;overflow=hidden;points=[[0,0.5],[1,0.5]];portConstraint=eastwest;rotatable=0;whiteSpace=wrap;html=1;" parent="cg7tUdVnF-VotXxQSskF-13" vertex="1">
          <mxGeometry y="80" width="140" height="30" as="geometry" />
        </mxCell>
        <mxCell id="cg7tUdVnF-VotXxQSskF-3" value="Data" style="swimlane;whiteSpace=wrap;html=1;" parent="WIyWlLk6GJQsqaUBKTNV-1" vertex="1">
          <mxGeometry x="430" y="1120" width="770" height="430" as="geometry" />
        </mxCell>
        <mxCell id="cg7tUdVnF-VotXxQSskF-17" value="AlunoRDGW" style="swimlane;fontStyle=0;childLayout=stackLayout;horizontal=1;startSize=20;horizontalStack=0;resizeParent=1;resizeParentMax=0;resizeLast=0;collapsible=1;marginBottom=0;whiteSpace=wrap;html=1;" parent="cg7tUdVnF-VotXxQSskF-3" vertex="1">
          <mxGeometry x="550" y="49" width="140" height="110" as="geometry" />
        </mxCell>
        <mxCell id="cg7tUdVnF-VotXxQSskF-18" value="Item 1" style="text;strokeColor=none;fillColor=none;align=left;verticalAlign=middle;spacingLeft=4;spacingRight=4;overflow=hidden;points=[[0,0.5],[1,0.5]];portConstraint=eastwest;rotatable=0;whiteSpace=wrap;html=1;" parent="cg7tUdVnF-VotXxQSskF-17" vertex="1">
          <mxGeometry y="20" width="140" height="30" as="geometry" />
        </mxCell>
        <mxCell id="cg7tUdVnF-VotXxQSskF-19" value="Item 2" style="text;strokeColor=none;fillColor=none;align=left;verticalAlign=middle;spacingLeft=4;spacingRight=4;overflow=hidden;points=[[0,0.5],[1,0.5]];portConstraint=eastwest;rotatable=0;whiteSpace=wrap;html=1;" parent="cg7tUdVnF-VotXxQSskF-17" vertex="1">
          <mxGeometry y="50" width="140" height="30" as="geometry" />
        </mxCell>
        <mxCell id="cg7tUdVnF-VotXxQSskF-20" value="Item 3" style="text;strokeColor=none;fillColor=none;align=left;verticalAlign=middle;spacingLeft=4;spacingRight=4;overflow=hidden;points=[[0,0.5],[1,0.5]];portConstraint=eastwest;rotatable=0;whiteSpace=wrap;html=1;" parent="cg7tUdVnF-VotXxQSskF-17" vertex="1">
          <mxGeometry y="80" width="140" height="30" as="geometry" />
        </mxCell>
        <mxCell id="cg7tUdVnF-VotXxQSskF-21" value="TemaRDGW" style="swimlane;fontStyle=0;childLayout=stackLayout;horizontal=1;startSize=20;horizontalStack=0;resizeParent=1;resizeParentMax=0;resizeLast=0;collapsible=1;marginBottom=0;whiteSpace=wrap;html=1;" parent="cg7tUdVnF-VotXxQSskF-3" vertex="1">
          <mxGeometry x="350" y="49" width="140" height="110" as="geometry" />
        </mxCell>
        <mxCell id="cg7tUdVnF-VotXxQSskF-22" value="Item 1" style="text;strokeColor=none;fillColor=none;align=left;verticalAlign=middle;spacingLeft=4;spacingRight=4;overflow=hidden;points=[[0,0.5],[1,0.5]];portConstraint=eastwest;rotatable=0;whiteSpace=wrap;html=1;" parent="cg7tUdVnF-VotXxQSskF-21" vertex="1">
          <mxGeometry y="20" width="140" height="30" as="geometry" />
        </mxCell>
        <mxCell id="cg7tUdVnF-VotXxQSskF-23" value="Item 2" style="text;strokeColor=none;fillColor=none;align=left;verticalAlign=middle;spacingLeft=4;spacingRight=4;overflow=hidden;points=[[0,0.5],[1,0.5]];portConstraint=eastwest;rotatable=0;whiteSpace=wrap;html=1;" parent="cg7tUdVnF-VotXxQSskF-21" vertex="1">
          <mxGeometry y="50" width="140" height="30" as="geometry" />
        </mxCell>
        <mxCell id="cg7tUdVnF-VotXxQSskF-24" value="Item 3" style="text;strokeColor=none;fillColor=none;align=left;verticalAlign=middle;spacingLeft=4;spacingRight=4;overflow=hidden;points=[[0,0.5],[1,0.5]];portConstraint=eastwest;rotatable=0;whiteSpace=wrap;html=1;" parent="cg7tUdVnF-VotXxQSskF-21" vertex="1">
          <mxGeometry y="80" width="140" height="30" as="geometry" />
        </mxCell>
        <mxCell id="cg7tUdVnF-VotXxQSskF-25" value="DocumentosRDGW" style="swimlane;fontStyle=0;childLayout=stackLayout;horizontal=1;startSize=20;horizontalStack=0;resizeParent=1;resizeParentMax=0;resizeLast=0;collapsible=1;marginBottom=0;whiteSpace=wrap;html=1;" parent="cg7tUdVnF-VotXxQSskF-3" vertex="1">
          <mxGeometry x="350" y="170" width="140" height="110" as="geometry" />
        </mxCell>
        <mxCell id="cg7tUdVnF-VotXxQSskF-26" value="Item 1" style="text;strokeColor=none;fillColor=none;align=left;verticalAlign=middle;spacingLeft=4;spacingRight=4;overflow=hidden;points=[[0,0.5],[1,0.5]];portConstraint=eastwest;rotatable=0;whiteSpace=wrap;html=1;" parent="cg7tUdVnF-VotXxQSskF-25" vertex="1">
          <mxGeometry y="20" width="140" height="30" as="geometry" />
        </mxCell>
        <mxCell id="cg7tUdVnF-VotXxQSskF-27" value="Item 2" style="text;strokeColor=none;fillColor=none;align=left;verticalAlign=middle;spacingLeft=4;spacingRight=4;overflow=hidden;points=[[0,0.5],[1,0.5]];portConstraint=eastwest;rotatable=0;whiteSpace=wrap;html=1;" parent="cg7tUdVnF-VotXxQSskF-25" vertex="1">
          <mxGeometry y="50" width="140" height="30" as="geometry" />
        </mxCell>
        <mxCell id="cg7tUdVnF-VotXxQSskF-28" value="Item 3" style="text;strokeColor=none;fillColor=none;align=left;verticalAlign=middle;spacingLeft=4;spacingRight=4;overflow=hidden;points=[[0,0.5],[1,0.5]];portConstraint=eastwest;rotatable=0;whiteSpace=wrap;html=1;" parent="cg7tUdVnF-VotXxQSskF-25" vertex="1">
          <mxGeometry y="80" width="140" height="30" as="geometry" />
        </mxCell>
        <mxCell id="cg7tUdVnF-VotXxQSskF-9" value="Aluno" style="swimlane;fontStyle=0;childLayout=stackLayout;horizontal=1;startSize=20;horizontalStack=0;resizeParent=1;resizeParentMax=0;resizeLast=0;collapsible=1;marginBottom=0;whiteSpace=wrap;html=1;" parent="WIyWlLk6GJQsqaUBKTNV-1" vertex="1">
          <mxGeometry x="470" y="585" width="140" height="110" as="geometry" />
        </mxCell>
        <mxCell id="cg7tUdVnF-VotXxQSskF-10" value="Item 1" style="text;strokeColor=none;fillColor=none;align=left;verticalAlign=middle;spacingLeft=4;spacingRight=4;overflow=hidden;points=[[0,0.5],[1,0.5]];portConstraint=eastwest;rotatable=0;whiteSpace=wrap;html=1;" parent="cg7tUdVnF-VotXxQSskF-9" vertex="1">
          <mxGeometry y="20" width="140" height="30" as="geometry" />
        </mxCell>
        <mxCell id="cg7tUdVnF-VotXxQSskF-11" value="Item 2" style="text;strokeColor=none;fillColor=none;align=left;verticalAlign=middle;spacingLeft=4;spacingRight=4;overflow=hidden;points=[[0,0.5],[1,0.5]];portConstraint=eastwest;rotatable=0;whiteSpace=wrap;html=1;" parent="cg7tUdVnF-VotXxQSskF-9" vertex="1">
          <mxGeometry y="50" width="140" height="30" as="geometry" />
        </mxCell>
        <mxCell id="cg7tUdVnF-VotXxQSskF-12" value="Item 3" style="text;strokeColor=none;fillColor=none;align=left;verticalAlign=middle;spacingLeft=4;spacingRight=4;overflow=hidden;points=[[0,0.5],[1,0.5]];portConstraint=eastwest;rotatable=0;whiteSpace=wrap;html=1;" parent="cg7tUdVnF-VotXxQSskF-9" vertex="1">
          <mxGeometry y="80" width="140" height="30" as="geometry" />
        </mxCell>
        <mxCell id="GU0O5rLi0uuip4Cfmz_H-0" value="Facade" style="swimlane;whiteSpace=wrap;html=1;" parent="WIyWlLk6GJQsqaUBKTNV-1" vertex="1">
          <mxGeometry x="1290" y="65" width="380" height="240" as="geometry" />
        </mxCell>
        <mxCell id="GU0O5rLi0uuip4Cfmz_H-1" value="Application&lt;br&gt;Exception" style="rounded=0;whiteSpace=wrap;html=1;" parent="GU0O5rLi0uuip4Cfmz_H-0" vertex="1">
          <mxGeometry x="130" y="165" width="120" height="60" as="geometry" />
        </mxCell>
        <mxCell id="GU0O5rLi0uuip4Cfmz_H-6" value="ThesisMan" style="swimlane;fontStyle=1;align=center;verticalAlign=top;childLayout=stackLayout;horizontal=1;startSize=26;horizontalStack=0;resizeParent=1;resizeParentMax=0;resizeLast=0;collapsible=1;marginBottom=0;whiteSpace=wrap;html=1;" parent="GU0O5rLi0uuip4Cfmz_H-0" vertex="1">
          <mxGeometry x="110" y="45" width="160" height="110" as="geometry" />
        </mxCell>
        <mxCell id="GU0O5rLi0uuip4Cfmz_H-8" value="" style="line;strokeWidth=1;fillColor=none;align=left;verticalAlign=middle;spacingTop=-1;spacingLeft=3;spacingRight=3;rotatable=0;labelPosition=right;points=[];portConstraint=eastwest;strokeColor=inherit;" parent="GU0O5rLi0uuip4Cfmz_H-6" vertex="1">
          <mxGeometry y="26" width="160" height="8" as="geometry" />
        </mxCell>
        <mxCell id="GU0O5rLi0uuip4Cfmz_H-9" value="+ ThesisMan()&lt;div&gt;+ run()&lt;/div&gt;&lt;div&gt;+ close()&lt;/div&gt;" style="text;strokeColor=none;fillColor=none;align=left;verticalAlign=top;spacingLeft=4;spacingRight=4;overflow=hidden;rotatable=0;points=[[0,0.5],[1,0.5]];portConstraint=eastwest;whiteSpace=wrap;html=1;" parent="GU0O5rLi0uuip4Cfmz_H-6" vertex="1">
          <mxGeometry y="34" width="160" height="76" as="geometry" />
        </mxCell>
      </root>
    </mxGraphModel>
  </diagram>
</mxfile>
